<svg width="131" height="40" viewBox="0 0 131 40" fill="none" xmlns="http://www.w3.org/2000/svg">
  <path d="M23.3151 7.4201H13.1888C5.90488 7.4201 0 13.3298 0 20.6197V26.1322C0 33.7904 6.20394 39.9988 13.8556 39.9988H22.6474C30.2996 39.9988 36.5026 33.7898 36.5026 26.1322V20.6197C36.5038 13.3298 30.598 7.4201 23.3151 7.4201ZM32.4282 25.8139C32.4282 31.6395 27.7093 36.3632 21.8875 36.3632H14.6157C8.79453 36.3632 4.07502 31.6401 4.07502 25.8139V21.2234C4.07502 15.6091 8.62257 11.0575 14.2326 11.0575H22.2709C27.8807 11.0575 32.4282 15.6088 32.4282 21.2234V25.8139Z" fill="url(#paint0_linear_608_730)"/>
  <path fill-rule="evenodd" clip-rule="evenodd" d="M18.3107 6.95504C16.7446 6.9698 15.1602 6.65785 13.7291 6.00861C12.3016 5.36118 10.9924 4.359 10.0697 2.99964C9.93259 2.80083 9.83619 2.57683 9.78602 2.34054C9.73586 2.10426 9.73293 1.86038 9.7774 1.62296C9.82187 1.38554 9.91287 1.15928 10.0451 0.957221C10.1774 0.755166 10.3483 0.581316 10.5481 0.445694C10.7478 0.310073 10.9724 0.215364 11.2088 0.167029C11.4453 0.118694 11.689 0.117689 11.9259 0.164072C12.1627 0.210454 12.3881 0.303307 12.5889 0.437277C12.7898 0.571246 12.9621 0.74368 13.0961 0.944637C13.5824 1.65988 14.323 2.26059 15.2388 2.67503C16.1547 3.08946 17.206 3.30497 18.2754 3.29503C19.3449 3.28508 20.3887 3.05028 21.2898 2.61776C22.1908 2.18524 22.9127 1.57157 23.3735 0.847583C23.501 0.641749 23.6681 0.46329 23.865 0.322552C24.0619 0.181813 24.2848 0.0815927 24.5208 0.0276998C24.7567 -0.0261931 25.0009 -0.0326868 25.2394 0.00859503C25.4778 0.0498769 25.7057 0.138113 25.9098 0.26819C26.114 0.398267 26.2903 0.567597 26.4285 0.766366C26.5668 0.965135 26.6642 1.18939 26.7152 1.42613C26.7662 1.66288 26.7698 1.9074 26.7257 2.14553C26.6816 2.38366 26.5907 2.61066 26.4583 2.81337C25.5738 4.20407 24.2848 5.23942 22.8715 5.91789C21.4581 6.59636 19.8767 6.94027 18.3107 6.95504Z" fill="#26DB33"/>
  <path fill-rule="evenodd" clip-rule="evenodd" d="M11.5344 18.3239C11.847 17.8552 12.2382 17.5559 12.1587 16.9714C12.0599 16.2556 11.4715 15.7287 10.7514 15.7336C10.3355 15.7357 9.94306 15.8978 9.68617 16.1857L9.68015 16.1796C9.27006 16.5898 8.89482 17.0334 8.55832 17.5058C8.44863 17.661 8.37473 17.8386 8.34198 18.0258C8.30922 18.213 8.31841 18.4051 8.3689 18.5884C8.41939 18.7716 8.5099 18.9413 8.63391 19.0852C8.75791 19.2292 8.91231 19.3437 9.08596 19.4207L9.1763 19.4614C9.80453 19.7411 10.5496 19.5581 10.9607 19.0063C11.1384 18.7678 11.33 18.5399 11.5344 18.3239V18.3239Z" fill="#26DB33"/>
  <path fill-rule="evenodd" clip-rule="evenodd" d="M11.433 28.6294C10.6913 27.8152 10.1362 26.8488 9.80632 25.7976C9.47648 24.7465 9.37989 23.636 9.52331 22.5436C9.55422 22.3141 9.50911 22.0807 9.39488 21.8793C9.28066 21.6779 9.10362 21.5195 8.89087 21.4284L8.46262 21.2454C7.69345 20.9139 6.81767 21.4127 6.71588 22.244C6.52148 23.8143 6.68737 25.4084 7.20093 26.9049C7.71448 28.4015 8.56219 29.7611 9.67961 30.8806L9.68563 30.8746C9.93018 31.0931 10.2705 31.2088 10.6238 31.2133C11.3622 31.2227 12.0016 30.6407 12.0531 29.9025C12.071 29.6544 12.023 29.406 11.9141 29.1825C11.8052 28.9589 11.6393 28.7681 11.433 28.6294V28.6294Z" fill="#26DB33"/>
  <path d="M50.0774 12.4528V14.7031H45.6046V29.2702H42.8483V14.7031H38.3511V12.4528H50.0774Z" fill="white"/>
  <path d="M55.2274 28.6288C54.2119 28.0563 53.414 27.2497 52.8337 26.2091C52.2535 25.1684 51.9634 23.9628 51.9634 22.5922C51.9634 21.237 52.2615 20.0352 52.8578 18.9867C53.4541 17.9382 54.2682 17.1316 55.2999 16.567C56.3311 16.0024 57.4836 15.72 58.7573 15.72C60.031 15.72 61.1835 16.0024 62.2146 16.567C63.2462 17.1318 64.0602 17.9384 64.6567 18.9867C65.2532 20.035 65.5514 21.2368 65.5512 22.5922C65.5512 23.9473 65.245 25.1491 64.6327 26.1976C64.0203 27.2461 63.186 28.0565 62.1297 28.6288C61.0734 29.2017 59.9089 29.488 58.6362 29.4878C57.3792 29.4878 56.2429 29.2015 55.2274 28.6288ZM60.6311 26.5843C61.2515 26.2457 61.7553 25.7377 62.1423 25.0601C62.5294 24.3825 62.7228 23.5598 62.7224 22.5919C62.7224 21.6241 62.5371 20.8054 62.1664 20.1357C61.7958 19.4659 61.3039 18.9619 60.6907 18.6235C60.0848 18.2864 59.4024 18.1112 58.7091 18.1147C58.0194 18.1098 57.3403 18.2851 56.7389 18.6232C56.1346 18.962 55.655 19.466 55.3003 20.1354C54.9455 20.8047 54.7682 21.6234 54.7684 22.5916C54.7684 24.0275 55.135 25.1366 55.8682 25.9188C56.6015 26.7011 57.5241 27.0922 58.6362 27.0922C59.3335 27.0953 60.0201 26.9206 60.6311 26.5843V26.5843Z" fill="white"/>
  <path d="M87.2265 16.3726C88.0565 16.808 88.7091 17.4533 89.1841 18.3085C89.6591 19.1637 89.8967 20.1961 89.8969 21.4058V29.2702H87.1651V21.8172C87.1651 20.6236 86.8669 19.7082 86.2704 19.0708C85.6739 18.4334 84.8603 18.1147 83.8297 18.1147C82.798 18.1147 81.9799 18.4333 81.3756 19.0705C80.7712 19.7077 80.469 20.6231 80.4688 21.8169V29.2702H77.7366V21.8172C77.7366 20.6236 77.4385 19.7082 76.8422 19.0708C76.2459 18.4334 75.4319 18.1147 74.4004 18.1147C73.3676 18.1147 72.55 18.4334 71.9477 19.0708C71.3454 19.7082 71.0431 20.6236 71.0409 21.8172V29.2702H68.2847V15.937H71.0409V17.4616C71.492 16.9132 72.0642 16.4857 72.7575 16.1791C73.4585 15.8711 74.2164 15.7144 74.9819 15.7194C76.046 15.7194 76.9971 15.9453 77.8351 16.397C78.6731 16.8487 79.3178 17.5018 79.7692 18.3561C80.1719 17.55 80.8006 16.9088 81.6551 16.4326C82.4967 15.9601 83.4463 15.7141 84.4113 15.7188C85.4583 15.7192 86.3967 15.9371 87.2265 16.3726Z" fill="white"/>
  <path d="M93.3188 18.9861C93.875 17.9539 94.6326 17.1513 95.5917 16.5784C96.5508 16.0056 97.6106 15.7192 98.7711 15.7194C99.8185 15.7194 100.733 15.9251 101.515 16.3364C102.297 16.7477 102.922 17.2601 103.389 17.8736V15.937H106.169V29.2702H103.389V27.286C102.921 27.9151 102.284 28.4394 101.479 28.8587C100.673 29.2781 99.7545 29.4878 98.7223 29.4878C97.5779 29.4878 96.5302 29.1934 95.5794 28.6047C94.6285 28.0159 93.8749 27.1932 93.3185 26.1364C92.7626 25.0801 92.4846 23.8823 92.4846 22.543C92.4846 21.2038 92.7627 20.0181 93.3188 18.9861ZM102.821 20.1959C102.442 19.5184 101.946 19.0022 101.334 18.6473C100.733 18.2955 100.048 18.1115 99.3514 18.1147C98.6564 18.1109 97.9726 18.2903 97.3689 18.635C96.7559 18.9818 96.2602 19.4898 95.8817 20.1592C95.5033 20.8285 95.3139 21.623 95.3137 22.5427C95.3137 23.4622 95.5031 24.2689 95.8817 24.9627C96.2604 25.6566 96.7601 26.1848 97.3809 26.5475C98.0009 26.9104 98.6577 27.0919 99.3514 27.0919C100.048 27.0953 100.733 26.9115 101.334 26.5596C101.946 26.2051 102.442 25.6849 102.821 24.9989C103.2 24.3129 103.389 23.5104 103.389 22.5915C103.389 21.672 103.199 20.8735 102.821 20.1959V20.1959Z" fill="white"/>
  <path d="M113.012 18.1876V25.5679C113.012 26.0679 113.129 26.4268 113.362 26.6446C113.596 26.8624 113.995 26.9713 114.559 26.9713H116.251V29.2702H114.076C112.834 29.2702 111.883 28.9798 111.223 28.3991C110.562 27.8184 110.232 26.8747 110.231 25.5679V18.1876H108.659V15.937H110.231V12.6215H113.011V15.937H116.251V18.1876H113.012Z" fill="white"/>
  <path d="M130.903 23.632H120.724C120.804 24.697 121.199 25.552 121.909 26.197C122.618 26.842 123.489 27.1646 124.52 27.1648C126.003 27.1648 127.05 26.5437 127.663 25.3015H130.637C130.234 26.5272 129.504 27.5319 128.449 28.3156C127.393 29.0992 126.084 29.4904 124.52 29.489C123.247 29.489 122.106 29.2026 121.099 28.6299C120.092 28.0573 119.302 27.2507 118.729 26.2102C118.157 25.1698 117.871 23.9641 117.871 22.5933C117.871 21.2225 118.149 20.0169 118.705 18.9764C119.261 17.936 120.043 17.1334 121.05 16.5688C122.058 16.0041 123.215 15.7218 124.52 15.7218C125.777 15.7218 126.897 15.996 127.881 16.5443C128.851 17.0799 129.648 17.8817 130.178 18.8553C130.726 19.8475 131 20.9888 131 22.2793C131.003 22.732 130.971 23.1843 130.903 23.632ZM128.123 21.4058C128.107 20.3894 127.744 19.5748 127.035 18.9619C126.326 18.3491 125.447 18.0426 124.399 18.0424C123.448 18.0424 122.634 18.3448 121.958 18.9496C121.281 19.5544 120.878 20.3731 120.749 21.4058H128.123Z" fill="white"/>
  <path d="M110.513 36.8856C110.273 36.7858 110.065 36.6215 109.913 36.4108C109.766 36.201 109.689 35.9498 109.694 35.6935H110.526C110.539 35.8867 110.625 36.0678 110.767 36.1989C110.911 36.3314 111.112 36.3975 111.372 36.3973C111.64 36.3973 111.849 36.3324 111.999 36.2026C112.072 36.1412 112.13 36.0642 112.169 35.9773C112.208 35.8903 112.227 35.7957 112.225 35.7004C112.225 35.5411 112.178 35.4113 112.085 35.311C111.988 35.2084 111.869 35.1289 111.737 35.0786C111.548 35.0086 111.355 34.9493 111.16 34.9011C110.903 34.8366 110.651 34.7533 110.407 34.6518C110.211 34.5659 110.041 34.431 109.912 34.26C109.776 34.0824 109.707 33.8455 109.707 33.5496C109.702 33.2953 109.773 33.0452 109.912 32.8322C110.053 32.6232 110.252 32.4595 110.484 32.3608C110.73 32.2517 111.014 32.197 111.337 32.1968C111.797 32.1968 112.174 32.3119 112.467 32.542C112.761 32.772 112.923 33.0874 112.955 33.4881H112.095C112.081 33.3151 112 33.1671 111.849 33.0441C111.699 32.9211 111.501 32.8596 111.256 32.8596C111.033 32.8596 110.851 32.9165 110.71 33.0302C110.569 33.144 110.498 33.3079 110.499 33.5221C110.496 33.5877 110.507 33.6532 110.53 33.7148C110.552 33.7763 110.587 33.8327 110.632 33.8808C110.727 33.9784 110.842 34.0542 110.97 34.1029C111.153 34.1724 111.34 34.2317 111.529 34.2805C111.791 34.3491 112.048 34.4358 112.297 34.54C112.497 34.6279 112.671 34.7655 112.802 34.9397C112.941 35.1205 113.011 35.3607 113.01 35.6603C113.01 35.9017 112.943 36.1383 112.816 36.3433C112.679 36.5647 112.483 36.7433 112.249 36.859C112.002 36.989 111.709 37.0539 111.372 37.0537C111.077 37.058 110.785 37.0007 110.513 36.8856V36.8856Z" fill="white"/>
  <path d="M114.841 33.8766V35.96C114.841 36.1006 114.874 36.202 114.94 36.2641C115.005 36.3244 115.118 36.3563 115.277 36.3563H115.755V37.0053H115.141C114.791 37.0053 114.522 36.9233 114.335 36.7593C114.149 36.5953 114.055 36.3289 114.056 35.96V33.8766H113.612V33.2413H114.056V32.3069H114.841V33.2413H115.755V33.8766H114.841Z" fill="white"/>
  <path d="M119.878 33.2412V37.0052H119.1V36.5609C118.971 36.72 118.806 36.8454 118.618 36.9262C118.419 37.0154 118.203 37.0608 117.985 37.0595C117.709 37.064 117.436 37.0007 117.19 36.875C116.957 36.7517 116.765 36.5616 116.64 36.3288C116.506 36.0877 116.438 35.7964 116.438 35.4548V33.2415H117.21V35.3387C117.21 35.6757 117.294 35.9341 117.462 36.1139C117.631 36.2938 117.861 36.3837 118.152 36.3837C118.443 36.3837 118.674 36.2938 118.844 36.1139C119.015 35.9341 119.1 35.6757 119.1 35.3387V33.2415L119.878 33.2412Z" fill="white"/>
  <path d="M120.878 34.1021C121.025 33.82 121.247 33.5845 121.52 33.4216C121.793 33.2587 122.106 33.175 122.423 33.1798C122.674 33.181 122.922 33.2356 123.15 33.3401C123.372 33.4343 123.568 33.5809 123.72 33.7672V31.9494H124.505V37.0046H123.72V36.4377C123.583 36.629 123.402 36.7841 123.191 36.8898C122.952 37.0117 122.685 37.0728 122.417 37.0676C122.1 37.0706 121.789 36.9841 121.519 36.8181C121.246 36.649 121.024 36.408 120.878 36.1215C120.721 35.8231 120.642 35.4849 120.642 35.107C120.642 34.729 120.721 34.394 120.878 34.1021ZM123.56 34.4436C123.463 34.2622 123.317 34.111 123.14 34.0062C122.97 33.9068 122.777 33.8548 122.58 33.8555C122.38 33.8537 122.183 33.9065 122.011 34.0082C121.838 34.1098 121.697 34.2566 121.601 34.4327C121.494 34.6216 121.441 34.8458 121.441 35.1055C121.441 35.3651 121.494 35.5927 121.601 35.7884C121.698 35.9739 121.844 36.1288 122.024 36.236C122.192 36.3365 122.384 36.3897 122.58 36.3898C122.777 36.3906 122.97 36.3386 123.14 36.2391C123.318 36.1338 123.463 35.9814 123.56 35.7987C123.667 35.6048 123.72 35.3781 123.72 35.1187C123.72 34.8593 123.667 34.6343 123.56 34.4436Z" fill="white"/>
  <path d="M125.57 32.5989C125.499 32.5291 125.451 32.4398 125.431 32.3424C125.412 32.245 125.422 32.1439 125.46 32.0522C125.498 31.9604 125.563 31.8822 125.646 31.8274C125.728 31.7727 125.826 31.744 125.925 31.745C125.99 31.7439 126.054 31.756 126.114 31.7807C126.174 31.8054 126.228 31.8421 126.273 31.8885C126.365 31.9839 126.416 32.1112 126.416 32.2437C126.416 32.3761 126.365 32.5034 126.273 32.5989C126.228 32.6454 126.174 32.6821 126.114 32.7068C126.054 32.7315 125.99 32.7436 125.925 32.7424C125.859 32.744 125.794 32.7321 125.733 32.7074C125.672 32.6828 125.616 32.6458 125.57 32.5989V32.5989ZM126.307 33.2412V37.0052H125.529V33.2412H126.307Z" fill="white"/>
  <path d="M128 36.8241C127.715 36.6643 127.481 36.4277 127.324 36.1411C127.16 35.8473 127.079 35.5068 127.079 35.1196C127.079 34.7378 127.163 34.3986 127.331 34.102C127.492 33.8137 127.731 33.5768 128.02 33.4187C128.322 33.2617 128.657 33.1797 128.996 33.1797C129.336 33.1797 129.671 33.2617 129.972 33.4187C130.262 33.5768 130.501 33.8137 130.662 34.102C130.83 34.398 130.915 34.7372 130.915 35.1196C130.915 35.502 130.828 35.8413 130.655 36.1375C130.488 36.4278 130.243 36.6656 129.949 36.8241C129.646 36.9866 129.306 37.0695 128.962 37.0652C128.626 37.0704 128.294 36.9873 128 36.8241V36.8241ZM129.526 36.2469C129.705 36.1464 129.853 35.9972 129.951 35.8165C130.061 35.6254 130.115 35.3931 130.115 35.1196C130.115 34.8461 130.063 34.615 129.958 34.4264C129.863 34.2472 129.719 34.099 129.542 33.9996C129.371 33.9043 129.178 33.8549 128.982 33.8561C128.788 33.8546 128.596 33.904 128.426 33.9996C128.252 34.0988 128.11 34.2472 128.02 34.4264C127.919 34.6152 127.869 34.8463 127.869 35.1196C127.869 35.5249 127.973 35.8381 128.18 36.0591C128.387 36.2801 128.647 36.3906 128.961 36.3906C129.158 36.3915 129.353 36.342 129.526 36.2469Z" fill="white"/>
  <path fill-rule="evenodd" clip-rule="evenodd" d="M43.1807 35.9036C43.1223 33.2813 44.7817 33.0773 47.0817 32.4946C46.8778 34.5343 46.4411 36.3114 43.6463 36.3988C43.5882 36.5447 43.5301 36.6902 43.5008 36.8651C43.4135 37.2147 42.9768 37.0399 43.0934 36.7777C43.5882 35.4958 44.4323 34.5343 45.5096 33.7183C45.5096 33.7183 43.9667 34.4469 43.1807 35.9036Z" fill="#26DB33"/>
  <path fill-rule="evenodd" clip-rule="evenodd" d="M50.6079 35.9036C50.5495 33.2813 52.2089 33.0773 54.5089 32.4946C54.305 34.5343 53.8683 36.3114 51.0735 36.3988C51.0154 36.5447 50.9573 36.6902 50.9281 36.8651C50.8407 37.2147 50.4041 37.0399 50.5206 36.7777C51.0154 35.4958 51.8596 34.5343 52.9368 33.7183C52.9368 33.7183 51.394 34.4469 50.6079 35.9036Z" fill="#26DB33"/>
  <path fill-rule="evenodd" clip-rule="evenodd" d="M58.034 35.9036C57.9755 33.2813 59.635 33.0773 61.9349 32.4946C61.731 34.5343 61.2944 36.3114 58.4996 36.3988C58.4414 36.5447 58.383 36.6902 58.3541 36.8651C58.2668 37.2147 57.8301 37.0399 57.9466 36.7777C58.4414 35.4958 59.2856 34.5343 60.3629 33.7183C60.3641 33.7183 58.8209 34.4469 58.034 35.9036Z" fill="#26DB33"/>
  <path fill-rule="evenodd" clip-rule="evenodd" d="M65.4621 35.9036C65.404 33.2813 67.0634 33.0773 69.3634 32.4946C69.1595 34.5343 68.7228 36.3114 65.928 36.3988C65.8699 36.5447 65.8115 36.6902 65.7825 36.8651C65.6952 37.2147 65.2585 37.0399 65.3748 36.7777C65.8699 35.4958 66.714 34.5343 67.7913 33.7183C67.7916 33.7183 66.2481 34.4469 65.4621 35.9036Z" fill="#26DB33"/>
  <path fill-rule="evenodd" clip-rule="evenodd" d="M72.8893 35.9036C72.8312 33.2813 74.4906 33.0773 76.7903 32.4946C76.5867 34.5343 76.15 36.3114 73.3552 36.3988C73.2971 36.5447 73.2387 36.6902 73.2098 36.8651C73.1224 37.2147 72.6858 37.0399 72.802 36.7777C73.2971 35.4958 74.1413 34.5343 75.2182 33.7183C75.2182 33.7183 73.6754 34.4469 72.8893 35.9036Z" fill="#26DB33"/>
  <path fill-rule="evenodd" clip-rule="evenodd" d="M80.3164 35.9036C80.2583 33.2813 81.9177 33.0773 84.2174 32.4946C84.0138 34.5343 83.5771 36.3114 80.7823 36.3988C80.7165 36.5483 80.6676 36.7047 80.6366 36.8651C80.5492 37.2147 80.1126 37.0399 80.2291 36.7777C80.7239 35.4958 81.5684 34.5343 82.6453 33.7183C82.6453 33.7183 81.1028 34.4469 80.3164 35.9036Z" fill="#26DB33"/>
  <path fill-rule="evenodd" clip-rule="evenodd" d="M87.7439 35.9036C87.6858 33.2813 89.3452 33.0773 91.6449 32.4946C91.441 34.5343 91.0043 36.3114 88.2098 36.3988C88.144 36.5483 88.0951 36.7047 88.0641 36.8651C87.9767 37.2147 87.54 37.0399 87.6566 36.7777C88.1514 35.4958 88.9959 34.5343 90.0728 33.7183C90.0728 33.7183 88.53 34.4469 87.7439 35.9036Z" fill="#26DB33"/>
  <path fill-rule="evenodd" clip-rule="evenodd" d="M95.1712 35.9036C95.1128 33.2813 96.7722 33.0773 99.0721 32.4946C98.8682 34.5343 98.4316 36.3114 95.6368 36.3988C95.5787 36.5447 95.5205 36.6902 95.4913 36.8651C95.404 37.2147 94.9673 37.0399 95.0838 36.7777C95.5787 35.4958 96.4228 34.5343 97.5001 33.7183C97.5001 33.7183 95.9572 34.4469 95.1712 35.9036Z" fill="#26DB33"/>
  <path fill-rule="evenodd" clip-rule="evenodd" d="M102.598 35.9036C102.54 33.2813 104.199 33.0773 106.499 32.4946C106.295 34.5343 105.859 36.3114 103.064 36.3988C103.006 36.5447 102.948 36.6902 102.919 36.8651C102.831 37.2147 102.395 37.0399 102.511 36.7777C103.006 35.4958 103.85 34.5343 104.927 33.7183C104.927 33.7183 103.384 34.4469 102.598 35.9036Z" fill="#26DB33"/>
  <defs>
    <linearGradient id="paint0_linear_608_730" x1="30.0454" y1="35.3179" x2="3.28481" y2="8.57898" gradientUnits="userSpaceOnUse">
    <stop offset="0.01" stop-color="#FB005C"/>
    <stop offset="0.28" stop-color="#FF236F"/>
    <stop offset="0.61" stop-color="#FF1800"/>
    <stop offset="0.98" stop-color="#E81500"/>
    </linearGradient>
  </defs>
</svg>
  